<?xml version="1.0" encoding="utf-8"?>
<!-- Generator: Adobe Illustrator 19.0.0, SVG Export Plug-In . SVG Version: 6.00 Build 0)  -->
<svg version="1.1" id="Layer_1" xmlns="http://www.w3.org/2000/svg" xmlns:xlink="http://www.w3.org/1999/xlink" x="0px" y="0px"
	 viewBox="0 0 841.9 228" style="enable-background:new 0 0 841.9 228;" xml:space="preserve">
<style type="text/css">
	.st0{fill:#67BD45;}
	.st1{fill:#545554;}
</style>
<g id="XMLID_10_">
	<g id="XMLID_5_">
		<path id="XMLID_12_" class="st0" d="M44.7,93.2h28.8v-4.7c0-0.7-0.7-1.2-1.5-1.2H38.9c-0.8,0-1.5,0.5-1.5,1.2v51.3
			c0,0.7,0.7,1.2,1.5,1.2h4.3V94.4C43.2,93.7,43.9,93.2,44.7,93.2z"/>
		<path id="XMLID_32_" class="st0" d="M80.1,95.3h-4.3H47c-0.8,0-1.5,0.5-1.5,1.2v46.6v2.7c0,0.7,0.7,1.2,1.5,1.2h33.1
			c0.8,0,1.5-0.5,1.5-1.2V96.5C81.6,95.9,80.9,95.3,80.1,95.3z"/>
	</g>
	<g id="XMLID_14_">
		<g id="XMLID_295_">
			<path id="XMLID_323_" class="st1" d="M115.8,89.9c17.1,0,25.6,5.9,25.6,17.6v37.3h-10.7l-6-6c-1.1,1.2-2.3,2.3-3.8,3.2
				c-1.5,0.9-3,1.7-4.7,2.4c-1.7,0.7-3.3,1.2-5.1,1.5c-1.7,0.4-3.4,0.5-5,0.5c-3,0-5.7-0.3-8.1-0.9s-4.4-1.6-6.1-3
				c-1.7-1.4-2.9-3.2-3.8-5.4c-0.9-2.3-1.3-5-1.3-8.3c0-12.8,9.7-19.2,29-19.2h4.3v-3.8c-1.1-0.1-2.1-0.1-3.1-0.2
				c-0.9-0.1-1.8-0.1-2.5-0.1c-8,0-14.9,1-20.7,2.9l-2.6-15.3C98.3,91,106.5,89.9,115.8,89.9z M108.3,126.5v4.4h4.4
				c3.1,0,5.1-0.4,6-1.1c0.8-0.8,1.2-1.7,1.2-2.8V122h-4.4c-2.5,0-4.4,0.3-5.6,0.8C108.9,123.3,108.3,124.5,108.3,126.5z"/>
			<path id="XMLID_321_" class="st1" d="M149.9,91.5h21.3v39.3h3.3c2.6,0,4.5-0.3,5.6-0.8c1.2-0.5,1.7-1.8,1.7-3.7V91.5h21.3v53.3
				h-10.7l-6.2-6c-4.3,5.1-10.3,7.6-18.2,7.6c-6.3,0-11-1.3-13.9-4c-2.9-2.7-4.4-7.2-4.4-13.5V91.5z"/>
			<path id="XMLID_319_" class="st1" d="M216,105.3h-5.3V91.5h5.3V83l21.3-5.3v13.9h7.4v13.8h-7.4v24.2c0.9,0.2,1.9,0.3,2.9,0.5
				c1.1,0.1,2.2,0.3,3.4,0.3l-1,15.6c-9.7,0-16-0.5-19-1.6c-2.5-0.9-4.4-2-5.7-3.4c-1.3-1.4-2-3.4-2-6.2V105.3z"/>
			<path id="XMLID_317_" class="st1" d="M273.9,111.9v32.9h-21.3V75.5l21.3-1.6v19.5c4.6-2.4,9.6-3.6,15.1-3.6
				c5.6,0,9.8,1.1,12.6,3.2c2.8,2.2,4.3,5.2,4.3,9v42.6h-21.3v-37.3h-3.3c-2.6,0-4.5,0.3-5.6,0.8C274.5,108.8,273.9,110,273.9,111.9
				z"/>
			<path id="XMLID_314_" class="st1" d="M313.9,118.1c0-9.5,2.2-16.6,6.7-21.3c4.4-4.6,11.6-7,21.6-7s17.1,2.3,21.6,7
				c4.4,4.6,6.7,11.7,6.7,21.3c0,9.5-2.2,16.6-6.7,21.3c-4.4,4.6-11.6,7-21.6,7c-9.7,0-16.8-2.3-21.4-6.8
				C316.2,135,313.9,127.9,313.9,118.1z M336.8,110v20.9h3.3c2.6,0,4.5-0.3,5.6-0.8c1.2-0.5,1.7-1.8,1.7-3.7v-20.9h-3.3
				c-2.6,0-4.5,0.3-5.6,0.8C337.4,106.8,336.8,108,336.8,110z"/>
			<path id="XMLID_312_" class="st1" d="M378.9,144.8V91.5h10.7l5.9,6c4.3-3.9,9.5-6.4,15.8-7.5l1.2,20.2c-0.8,0-1.8,0.1-3,0.4
				c-1.2,0.2-2.4,0.5-3.6,0.9c-1.2,0.4-2.3,0.8-3.3,1.3c-1,0.5-1.8,1.1-2.3,1.7v30.5H378.9z"/>
			<path id="XMLID_310_" class="st1" d="M424,93.6c4.6-2.5,10.8-3.7,18.7-3.7c8,0,15.3,1.1,21.9,3.3l-2.5,14.5
				c-2.8-0.8-5.5-1.4-8.3-1.8c-2.7-0.4-5.5-0.5-8.3-0.5c-0.8,0-1.9,0-3.1,0.1c-1.2,0.1-2.6,0.2-4.1,0.4v3.4c3.3,0,6.6,0.2,10,0.5
				c3.4,0.3,6.6,1.1,9.4,2.3c2.8,1.2,5.1,3,6.9,5.4c1.8,2.4,2.7,5.7,2.7,9.8c0,2.9-0.3,5.5-1,7.8c-0.7,2.3-1.7,4.1-3,5.5
				c-1.4,1.4-2.9,2.5-4.4,3.3c-1.5,0.8-3.5,1.4-5.9,1.8c-1.9,0.3-3.9,0.5-6.1,0.7c-2.2,0.1-4.5,0.2-7,0.2c-8.7,0-16.7-1-23.9-3.1
				l2.7-15.1c3,0.9,6.1,1.6,9.3,2c3.2,0.5,6.5,0.7,10,0.7c1.6,0,3.1,0,4.6-0.1c1.5-0.1,2.9-0.2,4.2-0.4v-3.4
				c-5.7,0-10.4-0.4-14.3-1.1c-3.8-0.7-6.9-1.9-9.2-3.4c-2.3-1.5-4-3.6-5-6c-1-2.5-1.5-5.4-1.5-8.9C417.1,100.8,419.4,96.1,424,93.6
				z"/>
			<path id="XMLID_308_" class="st1" d="M522.9,111.9v32.9h-21.3V75.5l21.3-1.6v19.5c4.6-2.4,9.6-3.6,15.1-3.6
				c5.6,0,9.8,1.1,12.6,3.2c2.8,2.2,4.3,5.2,4.3,9v42.6h-21.3v-37.3h-3.3c-2.6,0-4.5,0.3-5.6,0.8C523.5,108.8,522.9,110,522.9,111.9
				z"/>
			<path id="XMLID_305_" class="st1" d="M590.2,89.9c17.1,0,25.6,5.9,25.6,17.6v37.3h-10.7l-6-6c-1.1,1.2-2.3,2.3-3.8,3.2
				c-1.5,0.9-3,1.7-4.7,2.4c-1.7,0.7-3.3,1.2-5.1,1.5c-1.7,0.4-3.4,0.5-5,0.5c-3,0-5.7-0.3-8.1-0.9c-2.4-0.6-4.4-1.6-6.1-3
				c-1.7-1.4-2.9-3.2-3.8-5.4c-0.9-2.3-1.3-5-1.3-8.3c0-12.8,9.7-19.2,29-19.2h4.3v-3.8c-1.1-0.1-2.1-0.1-3.1-0.2
				c-0.9-0.1-1.8-0.1-2.5-0.1c-8,0-14.9,1-20.7,2.9l-2.6-15.3C572.7,91,580.9,89.9,590.2,89.9z M582.7,126.5v4.4h4.4
				c3.1,0,5.1-0.4,6-1.1c0.8-0.8,1.2-1.7,1.2-2.8V122h-4.4c-2.5,0-4.4,0.3-5.6,0.8C583.3,123.3,582.7,124.5,582.7,126.5z"/>
			<path id="XMLID_303_" class="st1" d="M633.4,144.8l-13.3-53.3h21.3l5.9,34.6h1.1l5.9-34.6h21.3l-13.3,53.3H633.4z"/>
			<path id="XMLID_300_" class="st1" d="M701.6,126.7v3.7c1.1,0.1,2.1,0.2,3.2,0.3c1.1,0.1,2.1,0.1,3.2,0.1c6.6,0,13.3-1.1,20.1-3.2
				l2.5,15.6c-8,2.1-15.9,3.2-23.6,3.2c-9.9,0-17.1-2.3-21.6-7c-4.4-4.6-6.7-11.7-6.7-21.3c0-9.5,2.2-16.6,6.7-21.3
				c4.5-4.6,11.6-7,21.5-7c5,0,9.1,0.3,12.4,0.9c3.3,0.6,6,1.7,8,3.1c2,1.5,3.5,3.4,4.4,5.9c0.9,2.5,1.3,5.6,1.3,9.3
				c0,3.1-0.5,5.7-1.6,7.9c-1,2.2-2.8,4-5.2,5.5c-2.4,1.4-5.7,2.5-9.7,3.2C712.6,126.3,707.6,126.7,701.6,126.7z M701.6,110v4.4h4.4
				c2.6,0,4.5-0.3,5.6-0.8c1.2-0.5,1.7-1.8,1.7-3.7v-4.4H709c-2.6,0-4.5,0.3-5.6,0.8C702.2,106.8,701.6,108,701.6,110z"/>
			<path id="XMLID_298_" class="st1" d="M741,91.5h10.7l5.3,5.3c6.6-4.6,13.7-6.9,21.3-6.9c5,0,9,1.1,11.8,3.2
				c2.8,2.2,4.2,5.2,4.2,9v42.6H773v-37.3h-3.3c-2.4,0-4.3,0.3-5.5,0.8c-1.2,0.5-1.9,1.6-1.9,3.3v33.2H741V91.5z"/>
			<path id="XMLID_296_" class="st0" d="M811,129c2.4,0,4.3,0.8,5.9,2.3c1.6,1.5,2.4,3.6,2.4,6c0,2.5-0.8,4.5-2.4,6
				c-1.6,1.5-3.5,2.3-5.9,2.3c-2.4,0-4.4-0.8-6-2.4s-2.4-3.6-2.4-6c0-2.5,0.8-4.5,2.4-6C806.6,129.7,808.6,129,811,129z"/>
		</g>
	</g>
</g>
</svg>
