<?xml version="1.0" encoding="utf-8"?>
<!-- Generator: Adobe Illustrator 19.0.0, SVG Export Plug-In . SVG Version: 6.00 Build 0)  -->
<svg version="1.1" id="Layer_1" xmlns="http://www.w3.org/2000/svg" xmlns:xlink="http://www.w3.org/1999/xlink" x="0px" y="0px"
	 viewBox="0 0 841.9 595.3" style="enable-background:new 0 0 841.9 595.3;" xml:space="preserve">
<style type="text/css">
	.st0{fill:#545554;}
	.st1{fill:#67BD45;}
</style>
<g id="XMLID_6_">
	<g id="XMLID_7_">
		<path id="XMLID_9_" class="st0" d="M291.3,193.7c22.1,0,33.1,7.6,33.1,22.8v48.3h-13.8l-7.8-7.8c-1.4,1.5-3,2.9-4.9,4.1
			c-1.9,1.2-3.9,2.3-6,3.1c-2.1,0.8-4.3,1.5-6.5,2c-2.2,0.5-4.4,0.7-6.4,0.7c-3.9,0-7.4-0.4-10.5-1.2c-3.1-0.8-5.7-2.1-7.9-3.8
			c-2.1-1.8-3.8-4.1-4.9-7c-1.1-2.9-1.7-6.5-1.7-10.7c0-16.5,12.5-24.8,37.5-24.8h5.5v-4.9c-1.5-0.1-2.8-0.2-4-0.2
			c-1.2-0.1-2.3-0.1-3.3-0.1c-10.3,0-19.3,1.3-26.8,3.8l-3.3-19.8C268.7,195.1,279.3,193.7,291.3,193.7z M281.7,241.1v5.6h5.7
			c4,0,6.6-0.5,7.8-1.4c1.1-1,1.6-2.2,1.6-3.6v-6.5h-5.6c-3.3,0-5.7,0.3-7.2,1C282.4,236.9,281.7,238.5,281.7,241.1z"/>
		<path id="XMLID_23_" class="st0" d="M335.5,195.8H363v50.9h4.3c3.4,0,5.8-0.3,7.3-1c1.5-0.7,2.2-2.3,2.2-4.8v-45h27.6v68.9h-13.8
			l-8-7.8c-5.5,6.6-13.4,9.9-23.6,9.9c-8.2,0-14.2-1.7-17.9-5.2c-3.8-3.5-5.6-9.3-5.6-17.5V195.8z"/>
		<path id="XMLID_25_" class="st0" d="M420.9,213.6h-6.9v-17.8h6.9v-11l27.6-6.9v17.9h9.5v17.8h-9.5V245c1.1,0.2,2.4,0.4,3.8,0.6
			c1.4,0.2,2.8,0.3,4.4,0.4l-1.3,20.2c-12.6,0-20.8-0.7-24.6-2.1c-3.2-1.1-5.7-2.6-7.4-4.4c-1.7-1.8-2.5-4.5-2.5-8V213.6z"/>
		<path id="XMLID_27_" class="st0" d="M496,222.2v42.5h-27.6v-89.6L496,173v25.3c5.9-3.1,12.4-4.6,19.5-4.6c7.2,0,12.6,1.4,16.3,4.2
			c3.7,2.8,5.5,6.7,5.5,11.7v55.2h-27.6v-48.3h-4.3c-3.4,0-5.8,0.3-7.3,1S496,219.8,496,222.2z"/>
		<path id="XMLID_29_" class="st0" d="M547.7,230.3c0-12.3,2.9-21.5,8.6-27.5c5.7-6,15.1-9,27.9-9c12.9,0,22.2,3,27.9,9
			c5.7,6,8.6,15.2,8.6,27.5c0,12.3-2.9,21.5-8.6,27.5c-5.7,6-15.1,9-27.9,9c-12.6,0-21.8-2.9-27.7-8.8
			C550.6,252.1,547.7,242.8,547.7,230.3z M577.3,219.7v27h4.3c3.4,0,5.8-0.3,7.3-1c1.5-0.7,2.2-2.3,2.2-4.8v-27h-4.3
			c-3.4,0-5.8,0.3-7.3,1S577.3,217.2,577.3,219.7z"/>
		<path id="XMLID_32_" class="st0" d="M631.8,264.7v-68.9h13.8l7.6,7.7c5.5-5.1,12.3-8.3,20.5-9.8l1.6,26.1c-1.1,0-2.4,0.2-3.9,0.5
			c-1.5,0.3-3.1,0.7-4.7,1.1c-1.6,0.5-3,1-4.3,1.7c-1.3,0.7-2.3,1.4-3,2.2v39.4H631.8z"/>
		<path id="XMLID_34_" class="st0" d="M690.2,198.5c5.9-3.2,14-4.8,24.2-4.8c10.3,0,19.8,1.4,28.4,4.3l-3.2,18.7
			c-3.6-1.1-7.2-1.8-10.7-2.3c-3.5-0.5-7.1-0.7-10.8-0.7c-1.1,0-2.4,0-4,0.1c-1.6,0.1-3.4,0.2-5.3,0.5v4.4c4.2,0,8.5,0.2,13,0.6
			c4.4,0.4,8.5,1.4,12.1,3c3.6,1.6,6.6,3.9,9,7c2.3,3.1,3.5,7.3,3.5,12.7c0,3.8-0.4,7.1-1.3,10.1c-0.8,3-2.1,5.3-3.9,7.1
			c-1.8,1.8-3.7,3.2-5.7,4.3c-2,1.1-4.5,1.8-7.6,2.3c-2.5,0.4-5.1,0.7-7.9,0.9c-2.8,0.2-5.8,0.3-9,0.3c-11.3,0-21.6-1.3-30.9-4
			l3.4-19.5c3.9,1.1,7.9,2,12.1,2.6c4.1,0.6,8.5,0.9,13,0.9c2.1,0,4,0,5.9-0.1c1.9-0.1,3.7-0.2,5.5-0.5v-4.4
			c-7.4,0-13.5-0.5-18.4-1.4c-4.9-1-8.9-2.4-12-4.4c-3-2-5.2-4.6-6.4-7.8c-1.3-3.2-1.9-7-1.9-11.5
			C681.2,207.8,684.2,201.8,690.2,198.5z"/>
		<path id="XMLID_36_" class="st0" d="M286.3,319.5V362h-27.6v-89.6l27.6-2.1v25.3c5.9-3.1,12.4-4.6,19.5-4.6
			c7.2,0,12.6,1.4,16.3,4.2c3.7,2.8,5.5,6.7,5.5,11.7V362h-27.6v-48.3h-4.3c-3.4,0-5.8,0.3-7.3,1C287,315.4,286.3,317,286.3,319.5z"
			/>
		<path id="XMLID_38_" class="st0" d="M373.4,291c22.1,0,33.1,7.6,33.1,22.8V362h-13.8l-7.8-7.8c-1.4,1.5-3,2.9-4.9,4.1
			c-1.9,1.2-3.9,2.3-6,3.1c-2.1,0.8-4.3,1.5-6.5,2c-2.2,0.5-4.4,0.7-6.4,0.7c-3.9,0-7.4-0.4-10.5-1.2c-3.1-0.8-5.7-2.1-7.9-3.9
			c-2.1-1.8-3.8-4.1-4.9-7c-1.1-2.9-1.7-6.5-1.7-10.7c0-16.5,12.5-24.8,37.5-24.8h5.5v-4.9c-1.5-0.1-2.8-0.2-4-0.2
			c-1.2-0.1-2.3-0.1-3.3-0.1c-10.3,0-19.3,1.3-26.8,3.8l-3.3-19.8C350.7,292.4,361.3,291,373.4,291z M363.7,338.3v5.6h5.7
			c4,0,6.6-0.5,7.8-1.4c1.1-1,1.6-2.2,1.6-3.6v-6.5h-5.6c-3.3,0-5.7,0.3-7.2,1C364.5,334.2,363.7,335.8,363.7,338.3z"/>
		<path id="XMLID_41_" class="st0" d="M429.2,362L412,293h27.6l7.6,44.8h1.4l7.6-44.8h27.6L466.5,362H429.2z"/>
		<path id="XMLID_43_" class="st0" d="M517.5,338.5v4.8c1.4,0.2,2.8,0.3,4.1,0.3c1.4,0.1,2.8,0.1,4.1,0.1c8.6,0,17.2-1.4,26-4.1
			l3.2,20.2c-10.3,2.8-20.5,4.1-30.6,4.1c-12.9,0-22.2-3-27.9-9c-5.7-6-8.6-15.2-8.6-27.5c0-12.3,2.9-21.5,8.7-27.5
			c5.8-6,15.1-9,27.9-9c6.4,0,11.8,0.4,16.1,1.2c4.3,0.8,7.8,2.1,10.4,4c2.6,1.9,4.5,4.4,5.6,7.6c1.1,3.2,1.7,7.2,1.7,12
			c0,4-0.7,7.4-2,10.3c-1.3,2.9-3.6,5.2-6.7,7.1c-3.1,1.8-7.3,3.2-12.5,4.1C531.7,338.1,525.2,338.5,517.5,338.5z M517.5,316.9v5.6
			h5.6c3.4,0,5.8-0.3,7.3-1c1.5-0.7,2.2-2.3,2.2-4.8v-5.6H527c-3.4,0-5.8,0.3-7.3,1C518.2,312.8,517.5,314.4,517.5,316.9z"/>
		<path id="XMLID_46_" class="st0" d="M568.5,293h13.8l6.9,6.9c8.5-6,17.7-9,27.6-9c6.5,0,11.6,1.4,15.2,4.2
			c3.6,2.8,5.5,6.7,5.5,11.7V362h-27.6v-48.3h-4.3c-3.1,0-5.5,0.3-7.1,1c-1.6,0.7-2.4,2.1-2.4,4.3v43h-27.6V293z"/>
		<path id="XMLID_48_" class="st1" d="M659,341.5c3.1,0,5.6,1,7.6,3c2,2,3,4.6,3,7.8c0,3.2-1,5.8-3,7.8c-2,2-4.6,3-7.6,3
			c-3.1,0-5.6-1-7.7-3.1c-2.1-2.1-3.1-4.6-3.1-7.7c0-3.2,1-5.8,3.1-7.8C653.4,342.5,656,341.5,659,341.5z"/>
	</g>
	<g id="XMLID_4_">
		<path id="XMLID_8_" class="st1" d="M151,205.5h66.7v-9c0-2-1.6-3.5-3.5-3.5h-76.7c-2,0-3.5,1.6-3.5,3.5v146c0,2,1.6,3.5,3.5,3.5
			h10V209C147.4,207.1,149,205.5,151,205.5z"/>
		<path id="XMLID_21_" class="st1" d="M233.1,211.8h-10h-66.7c-2,0-3.5,1.6-3.5,3.5v137v8c0,2,1.6,3.5,3.5,3.5h76.7
			c2,0,3.5-1.6,3.5-3.5v-145C236.6,213.4,235,211.8,233.1,211.8z"/>
	</g>
</g>
</svg>
